<svg width="296" height="375" viewBox="0 0 296 375" fill="none" xmlns="http://www.w3.org/2000/svg">
                <path d="M108.053 102.676L23.382 185.939C108.053 185.939 108.053 185.939 109.664 272.653L191.633 187.664C108.053 185.939 108.053 185.939 108.053 102.676Z" fill="#888DF2"/>
                <path d="M108.37 49.1811C108.37 30.1201 92.9182 14.668 73.8572 14.668H-29.6818C-48.7429 14.668 -64.1949 30.12 -64.1949 49.181V152.72C-64.1949 171.781 -48.7429 187.233 -29.6819 187.233H73.8571C92.9181 187.233 108.37 171.781 108.37 152.72V49.1811Z" fill="black"/>
                <path d="M109.233 34.5131C109.233 15.452 93.781 0 74.72 0H-43.487C-62.548 0 -78.0001 15.452 -78.0001 34.513V152.72C-78.0001 171.781 -62.5481 187.233 -43.487 187.233H74.72C93.781 187.233 109.233 171.781 109.233 152.72V34.5131Z" fill="#888DF2"/>
                <path d="M295.603 221.746C295.603 202.685 280.151 187.233 261.09 187.233H142.883C123.822 187.233 108.37 202.685 108.37 221.746V339.953C108.37 359.014 123.822 374.466 142.883 374.466H261.093C280.153 374.466 295.603 359.016 295.603 339.956V221.746Z" fill="#888DF2"/>
                <path d="M197.903 232.865C199.724 229.712 204.276 229.712 206.097 232.865L255.26 318.019C257.081 321.173 254.805 325.115 251.163 325.115H152.836C149.195 325.115 146.919 321.173 148.74 318.019L197.903 232.865Z" stroke="black" stroke-width="15.7693"/>
                <path d="M198.19 259.382H206.864V298.654H198.19V259.382ZM202.77 313.433C201.105 313.433 199.74 312.994 198.676 312.115C197.612 311.19 197.08 309.987 197.08 308.507C197.08 307.073 197.612 305.87 198.676 304.899C199.786 303.927 201.151 303.442 202.77 303.442C204.389 303.442 205.707 303.927 206.725 304.899C207.789 305.87 208.321 307.073 208.321 308.507C208.321 309.987 207.812 311.19 206.794 312.115C205.777 312.994 204.435 313.433 202.77 313.433Z" fill="black"/>
                </svg>