<svg width="361" height="375" viewBox="0 0 361 375" fill="none" xmlns="http://www.w3.org/2000/svg">
<path d="M187.551 102.676L272.221 185.939C187.551 185.939 187.551 185.939 185.939 272.653L103.97 187.664C187.551 185.939 187.551 185.939 187.551 102.676Z" fill="#BFF205"/>
<path d="M187.233 34.5131C187.233 15.452 202.685 0 221.746 0H374.466V152.72C374.466 171.781 359.014 187.233 339.953 187.233H221.746C202.685 187.233 187.233 171.781 187.233 152.72V34.5131Z" fill="#BFF205"/>
<circle cx="45.0779" cy="45.0779" r="38.8171" transform="matrix(-1 0 0 1 321.156 43)" stroke="black" stroke-width="12.5216"/>
<path d="M306.13 118.13L333.677 145.677" stroke="black" stroke-width="17.5303" stroke-linecap="round"/>
<path d="M276.078 65.5439C276.078 65.5439 269.012 65.1861 262.304 70.5526C255.596 75.9191 253.539 83.0742 253.539 83.0742" stroke="black" stroke-width="7.51298"/>
<rect y="187.233" width="187.233" height="187.233" rx="34.513" fill="url(#paint0_linear_73_703)"/>
<defs>
<linearGradient id="paint0_linear_73_703" x1="93.6165" y1="187.233" x2="93.6165" y2="374.466" gradientUnits="userSpaceOnUse">
<stop offset="0.28" stop-color="#BFF205"/>
<stop offset="1" stop-color="#91B804"/>
</linearGradient>
</defs>
</svg>
