<svg width="372" height="24" viewBox="0 0 372 24" fill="none" xmlns="http://www.w3.org/2000/svg">
<path d="M11.992 23.32C9.73067 23.32 7.75733 22.84 6.072 21.88C4.38667 20.8987 3.07467 19.544 2.136 17.816C1.19733 16.0667 0.728 14.0507 0.728 11.768C0.728 9.50667 1.19733 7.512 2.136 5.784C3.096 4.056 4.42933 2.712 6.136 1.752C7.84267 0.770665 9.79467 0.279999 11.992 0.279999C14.2747 0.279999 16.2587 0.770665 17.944 1.752C19.6507 2.712 20.9733 4.06667 21.912 5.816C22.8507 7.544 23.32 9.53867 23.32 11.8C23.32 14.0613 22.84 16.0667 21.88 17.816C20.92 19.544 19.5867 20.8987 17.88 21.88C16.1947 22.84 14.232 23.32 11.992 23.32ZM11.992 20.184C13.5493 20.184 14.9147 19.8533 16.088 19.192C17.2613 18.5093 18.1787 17.5387 18.84 16.28C19.5013 15.0213 19.832 13.5173 19.832 11.768C19.832 10.04 19.5013 8.55733 18.84 7.32C18.2 6.06133 17.2933 5.10133 16.12 4.44C14.9467 3.75733 13.5707 3.416 11.992 3.416C10.4773 3.416 9.13333 3.75733 7.96 4.44C6.78667 5.10133 5.86933 6.06133 5.208 7.32C4.54667 8.55733 4.216 10.0507 4.216 11.8C4.216 13.528 4.536 15.0213 5.176 16.28C5.83733 17.5387 6.75467 18.5093 7.928 19.192C9.10133 19.8533 10.456 20.184 11.992 20.184ZM48.5973 23.32C45.8453 23.32 43.4879 22.8613 41.5253 21.944C39.5839 21.0267 38.0906 19.704 37.0453 17.976C36.0213 16.248 35.5093 14.1787 35.5093 11.768C35.5093 9.89067 35.8293 8.23733 36.4693 6.808C37.1093 5.37867 37.9946 4.184 39.1253 3.224C40.2773 2.24267 41.6106 1.50667 43.1253 1.016C44.6399 0.525332 46.2506 0.279999 47.9573 0.279999C48.9599 0.279999 49.9626 0.375999 50.9653 0.567999C51.9893 0.738666 52.9813 1.00533 53.9413 1.368L54.9653 1.752L54.3253 4.408L53.1413 4.12C52.2453 3.88533 51.3706 3.71467 50.5173 3.608C49.6639 3.48 48.8426 3.416 48.0533 3.416C46.3253 3.416 44.7786 3.72533 43.4133 4.344C42.0479 4.96267 40.9706 5.89067 40.1813 7.128C39.3919 8.36533 38.9973 9.92267 38.9973 11.8C38.9973 13.6347 39.3706 15.192 40.1173 16.472C40.8853 17.7307 41.9839 18.6907 43.4133 19.352C44.8639 19.992 46.6026 20.312 48.6293 20.312C49.3333 20.312 50.0799 20.2587 50.8693 20.152C51.6586 20.0453 52.4373 19.8853 53.2053 19.672V13.784H46.4533V10.776H56.5973V21.4C55.8293 21.7627 54.9973 22.0933 54.1013 22.392C53.2266 22.6907 52.3199 22.9147 51.3813 23.064C50.4426 23.2347 49.5146 23.32 48.5973 23.32ZM62.0475 23V0.599998H71.1675C72.7248 0.599998 74.0688 0.823999 75.1995 1.272C76.3515 1.72 77.2475 2.392 77.8875 3.288C78.5275 4.184 78.8475 5.304 78.8475 6.648C78.8475 7.544 78.6982 8.38667 78.3995 9.176C78.1222 9.96533 77.6742 10.6587 77.0555 11.256C76.4368 11.8533 75.6155 12.3227 74.5915 12.664C73.5888 13.0053 72.3622 13.176 70.9115 13.176H63.2955V23H62.0475ZM78.3995 23L71.8075 12.984L73.0235 12.536L79.9035 23H78.3995ZM63.2955 12.024H71.2315C73.2155 12.024 74.7622 11.5653 75.8715 10.648C76.9808 9.70933 77.5355 8.36533 77.5355 6.616C77.5355 4.97333 76.9702 3.75733 75.8395 2.968C74.7088 2.15733 73.1195 1.752 71.0715 1.752H63.2955V12.024ZM93.212 23.32C91.4413 23.32 89.8947 23.0107 88.572 22.392C87.2493 21.752 86.2147 20.76 85.468 19.416C84.7427 18.072 84.38 16.344 84.38 14.232V0.599998H85.628V13.88C85.628 16.8453 86.3 18.968 87.644 20.248C88.988 21.528 90.844 22.168 93.212 22.168C95.6227 22.168 97.4893 21.528 98.812 20.248C100.135 18.968 100.796 16.8453 100.796 13.88V0.599998H101.98V14.232C101.98 16.344 101.617 18.072 100.892 19.416C100.167 20.7387 99.1427 21.72 97.82 22.36C96.5187 23 94.9827 23.32 93.212 23.32ZM108.235 23V0.599998H116.619C118.262 0.599998 119.67 0.855998 120.843 1.368C122.016 1.88 122.912 2.63733 123.531 3.64C124.15 4.64267 124.459 5.89067 124.459 7.384C124.459 8.87733 124.15 10.168 123.531 11.256C122.912 12.3227 122.016 13.1547 120.843 13.752C119.67 14.328 118.262 14.616 116.619 14.616H109.483V23H108.235ZM109.483 13.464H116.619C118.688 13.464 120.288 12.9413 121.419 11.896C122.571 10.8293 123.147 9.336 123.147 7.416C123.147 5.45333 122.571 4.024 121.419 3.128C120.288 2.21067 118.688 1.752 116.619 1.752H109.483V13.464ZM138.774 23.32C136.641 23.32 134.753 22.8293 133.11 21.848C131.467 20.8667 130.177 19.512 129.238 17.784C128.299 16.0347 127.83 14.04 127.83 11.8C127.83 9.56 128.299 7.576 129.238 5.848C130.177 4.09867 131.467 2.73333 133.11 1.752C134.753 0.770665 136.641 0.279999 138.774 0.279999C140.929 0.279999 142.827 0.770665 144.47 1.752C146.113 2.73333 147.403 4.09867 148.342 5.848C149.281 7.576 149.75 9.56 149.75 11.8C149.75 14.04 149.281 16.0347 148.342 17.784C147.403 19.512 146.113 20.8667 144.47 21.848C142.827 22.8293 140.929 23.32 138.774 23.32ZM138.774 22.168C140.673 22.168 142.347 21.72 143.798 20.824C145.249 19.928 146.379 18.7013 147.19 17.144C148.022 15.5653 148.438 13.784 148.438 11.8C148.438 9.79467 148.022 8.01333 147.19 6.456C146.379 4.89867 145.249 3.672 143.798 2.776C142.347 1.88 140.673 1.432 138.774 1.432C136.918 1.432 135.265 1.88 133.814 2.776C132.363 3.672 131.222 4.89867 130.39 6.456C129.558 8.01333 129.142 9.79467 129.142 11.8C129.142 13.784 129.558 15.5653 130.39 17.144C131.222 18.7013 132.363 19.928 133.814 20.824C135.265 21.72 136.918 22.168 138.774 22.168ZM163.204 23V0.599998H170.82C173.102 0.599998 175.076 1.05867 176.74 1.976C178.404 2.89333 179.694 4.19467 180.612 5.88C181.529 7.56533 181.988 9.54933 181.988 11.832C181.988 14.1147 181.518 16.0987 180.58 17.784C179.641 19.448 178.308 20.7387 176.58 21.656C174.873 22.552 172.846 23 170.5 23H163.204ZM164.452 21.848H170.724C172.75 21.848 174.51 21.4427 176.004 20.632C177.497 19.8 178.649 18.6373 179.46 17.144C180.27 15.6507 180.676 13.88 180.676 11.832C180.676 9.74133 180.27 7.94933 179.46 6.456C178.67 4.94133 177.529 3.77867 176.036 2.968C174.564 2.15733 172.793 1.752 170.724 1.752H164.452V21.848ZM187.423 23V0.599998H203.039V1.752H188.671V10.968H201.759V12.12H188.671V21.848H203.263V23H187.423ZM215.879 23V0.599998H225.511C227.154 0.599998 228.562 0.887999 229.735 1.464C230.909 2.04 231.805 2.872 232.423 3.96C233.042 5.048 233.351 6.37067 233.351 7.928C233.351 9.48533 233.031 10.84 232.391 11.992C231.751 13.1227 230.845 13.9973 229.671 14.616C228.498 15.2347 227.111 15.544 225.511 15.544H219.239L219.271 23H215.879ZM219.271 12.536H225.095C226.61 12.536 227.783 12.1627 228.615 11.416C229.447 10.648 229.863 9.50667 229.863 7.992C229.863 6.43467 229.447 5.31467 228.615 4.632C227.783 3.94933 226.61 3.608 225.095 3.608H219.271V12.536ZM237.86 23V0.599998H253.476V1.752H239.108V10.968H252.196V12.12H239.108V21.848H253.7V23H237.86ZM265.005 23.32C263.703 23.32 262.541 23.2347 261.517 23.064C260.514 22.9147 259.703 22.7547 259.085 22.584L257.197 22.04L257.517 21.048L259.341 21.496C260.215 21.7093 261.175 21.88 262.221 22.008C263.266 22.1147 264.205 22.168 265.037 22.168C267.213 22.168 268.877 21.7413 270.029 20.888C271.181 20.0347 271.757 18.7973 271.757 17.176C271.757 16.3653 271.565 15.672 271.181 15.096C270.797 14.4987 270.114 13.9547 269.133 13.464C268.173 12.9733 266.807 12.472 265.037 11.96C263.223 11.4267 261.762 10.9253 260.653 10.456C259.565 9.96533 258.775 9.38933 258.285 8.728C257.815 8.06667 257.581 7.20267 257.581 6.136C257.581 4.74933 257.933 3.62933 258.637 2.776C259.362 1.92267 260.322 1.29333 261.517 0.887999C262.711 0.482665 264.034 0.279999 265.485 0.279999C266.423 0.279999 267.394 0.365332 268.397 0.535999C269.421 0.685332 270.423 0.909332 271.405 1.208L272.365 1.496L272.109 2.456L271.117 2.2C270.114 1.96533 269.133 1.784 268.173 1.656C267.234 1.50667 266.295 1.432 265.357 1.432C263.33 1.432 261.73 1.83733 260.557 2.648C259.405 3.45867 258.829 4.61067 258.829 6.104C258.829 6.91467 259.01 7.576 259.373 8.088C259.757 8.57867 260.429 9.016 261.389 9.4C262.349 9.784 263.714 10.2427 265.485 10.776C267.298 11.288 268.749 11.8213 269.837 12.376C270.946 12.9093 271.757 13.5493 272.269 14.296C272.781 15.0427 273.037 15.9813 273.037 17.112C273.037 18.5627 272.674 19.7467 271.949 20.664C271.245 21.5813 270.285 22.2533 269.069 22.68C267.874 23.1067 266.519 23.32 265.005 23.32ZM297.675 23.32L288.875 13.624L289.803 12.888L298.539 22.552L297.675 23.32ZM287.243 23.32C285.109 23.32 283.221 22.8293 281.579 21.848C279.936 20.8667 278.645 19.512 277.707 17.784C276.768 16.0347 276.299 14.04 276.299 11.8C276.299 9.56 276.768 7.576 277.707 5.848C278.645 4.09867 279.936 2.73333 281.579 1.752C283.221 0.770665 285.109 0.279999 287.243 0.279999C289.397 0.279999 291.296 0.770665 292.939 1.752C294.581 2.73333 295.872 4.09867 296.811 5.848C297.749 7.576 298.219 9.56 298.219 11.8C298.219 14.04 297.749 16.0347 296.811 17.784C295.872 19.512 294.581 20.8667 292.939 21.848C291.296 22.8293 289.397 23.32 287.243 23.32ZM287.243 22.168C289.141 22.168 290.816 21.72 292.267 20.824C293.717 19.928 294.848 18.7013 295.659 17.144C296.491 15.5653 296.907 13.784 296.907 11.8C296.907 9.79467 296.491 8.01333 295.659 6.456C294.848 4.89867 293.717 3.672 292.267 2.776C290.816 1.88 289.141 1.432 287.243 1.432C285.387 1.432 283.733 1.88 282.283 2.776C280.832 3.672 279.691 4.89867 278.859 6.456C278.027 8.01333 277.611 9.79467 277.611 11.8C277.611 13.784 278.027 15.5653 278.859 17.144C279.691 18.7013 280.832 19.928 282.283 20.824C283.733 21.72 285.387 22.168 287.243 22.168ZM312.337 23.32C310.566 23.32 309.02 23.0107 307.697 22.392C306.374 21.752 305.34 20.76 304.593 19.416C303.868 18.072 303.505 16.344 303.505 14.232V0.599998H304.753V13.88C304.753 16.8453 305.425 18.968 306.769 20.248C308.113 21.528 309.969 22.168 312.337 22.168C314.748 22.168 316.614 21.528 317.937 20.248C319.26 18.968 319.921 16.8453 319.921 13.88V0.599998H321.105V14.232C321.105 16.344 320.742 18.072 320.017 19.416C319.292 20.7387 318.268 21.72 316.945 22.36C315.644 23 314.108 23.32 312.337 23.32ZM327.36 23V0.599998H328.608V23H327.36ZM341.505 23.32C340.203 23.32 339.041 23.2347 338.017 23.064C337.014 22.9147 336.203 22.7547 335.585 22.584L333.697 22.04L334.017 21.048L335.841 21.496C336.715 21.7093 337.675 21.88 338.721 22.008C339.766 22.1147 340.705 22.168 341.537 22.168C343.713 22.168 345.377 21.7413 346.529 20.888C347.681 20.0347 348.257 18.7973 348.257 17.176C348.257 16.3653 348.065 15.672 347.681 15.096C347.297 14.4987 346.614 13.9547 345.633 13.464C344.673 12.9733 343.307 12.472 341.537 11.96C339.723 11.4267 338.262 10.9253 337.153 10.456C336.065 9.96533 335.275 9.38933 334.785 8.728C334.315 8.06667 334.081 7.20267 334.081 6.136C334.081 4.74933 334.433 3.62933 335.137 2.776C335.862 1.92267 336.822 1.29333 338.017 0.887999C339.211 0.482665 340.534 0.279999 341.985 0.279999C342.923 0.279999 343.894 0.365332 344.897 0.535999C345.921 0.685332 346.923 0.909332 347.905 1.208L348.865 1.496L348.609 2.456L347.617 2.2C346.614 1.96533 345.633 1.784 344.673 1.656C343.734 1.50667 342.795 1.432 341.857 1.432C339.83 1.432 338.23 1.83733 337.057 2.648C335.905 3.45867 335.329 4.61067 335.329 6.104C335.329 6.91467 335.51 7.576 335.873 8.088C336.257 8.57867 336.929 9.016 337.889 9.4C338.849 9.784 340.214 10.2427 341.985 10.776C343.798 11.288 345.249 11.8213 346.337 12.376C347.446 12.9093 348.257 13.5493 348.769 14.296C349.281 15.0427 349.537 15.9813 349.537 17.112C349.537 18.5627 349.174 19.7467 348.449 20.664C347.745 21.5813 346.785 22.2533 345.569 22.68C344.374 23.1067 343.019 23.32 341.505 23.32ZM350.879 23L360.223 0.599998H361.983L371.359 23H369.983L361.119 1.496H361.055L352.223 23H350.879ZM354.399 16.6V15.448H367.679V16.6H354.399Z" fill="white"/>
</svg>
