<svg width="113" height="24" viewBox="0 0 113 24" fill="none" xmlns="http://www.w3.org/2000/svg">
<path d="M11.992 23.32C9.73067 23.32 7.75733 22.84 6.072 21.88C4.38667 20.8987 3.07467 19.544 2.136 17.816C1.19733 16.0667 0.728 14.0507 0.728 11.768C0.728 9.50667 1.19733 7.512 2.136 5.784C3.096 4.056 4.42933 2.712 6.136 1.752C7.84267 0.770665 9.79467 0.279999 11.992 0.279999C14.2747 0.279999 16.2587 0.770665 17.944 1.752C19.6507 2.712 20.9733 4.06667 21.912 5.816C22.8507 7.544 23.32 9.53867 23.32 11.8C23.32 14.0613 22.84 16.0667 21.88 17.816C20.92 19.544 19.5867 20.8987 17.88 21.88C16.1947 22.84 14.232 23.32 11.992 23.32ZM11.992 20.184C13.5493 20.184 14.9147 19.8533 16.088 19.192C17.2613 18.5093 18.1787 17.5387 18.84 16.28C19.5013 15.0213 19.832 13.5173 19.832 11.768C19.832 10.04 19.5013 8.55733 18.84 7.32C18.2 6.06133 17.2933 5.10133 16.12 4.44C14.9467 3.75733 13.5707 3.416 11.992 3.416C10.4773 3.416 9.13333 3.75733 7.96 4.44C6.78667 5.10133 5.86933 6.06133 5.208 7.32C4.54667 8.55733 4.216 10.0507 4.216 11.8C4.216 13.528 4.536 15.0213 5.176 16.28C5.83733 17.5387 6.75467 18.5093 7.928 19.192C9.10133 19.8533 10.456 20.184 11.992 20.184ZM42.7093 23V3.608H34.7413V0.599998H54.0373V3.608H46.1333V23H42.7093ZM58.36 23V0.599998H59.608V23H58.36ZM66.3288 23V0.599998H67.4168L77.7848 15.096H77.8488L88.4408 0.599998H89.4648V23H88.2168V2.712L78.1688 16.664H77.4328L67.5768 2.904V23H66.3288ZM96.1725 23V0.599998H111.789V1.752H97.4205V10.968H110.509V12.12H97.4205V21.848H112.013V23H96.1725Z" fill="white"/>
</svg>
